<svg width="52" height="49" viewBox="0 0 52 49" fill="none" xmlns="http://www.w3.org/2000/svg">
<path d="M51.8218 9.72027C52.2498 10.8223 51.7936 11.8679 51.6281 12.9336C51.5595 13.3696 51.4666 13.7975 51.3859 14.2295C51.3536 14.3223 51.3092 14.4111 51.289 14.504C51.0185 15.7877 50.7238 17.0674 50.4897 18.3592C50.2959 19.4209 49.9729 20.4625 49.8882 21.5484C49.8195 21.6332 49.7792 21.726 49.8034 21.839C49.6863 22.2589 49.5531 22.6747 49.5693 23.1187C49.5652 23.1672 49.5612 23.2116 49.5531 23.26C49.4562 23.3125 49.4401 23.4054 49.4159 23.5063C49.0889 25.113 48.7215 26.7116 48.4389 28.3223C48.2007 29.6828 47.2359 30.6597 45.5324 30.6556C35.3957 30.6234 25.2631 30.6395 15.1264 30.6395C14.9448 30.6395 14.7631 30.6395 14.5855 30.6395C14.4442 30.6395 14.2948 30.6758 14.3271 30.8535C14.428 31.3944 14.4442 31.9555 14.7227 32.4521C14.7308 32.5651 14.7429 32.6781 14.751 32.7912C14.7389 32.9648 14.7187 33.1383 14.86 33.2796C14.8559 33.4169 14.86 33.5501 14.9286 33.6752C14.8963 33.7519 14.8923 33.8206 14.973 33.869C14.9892 33.9457 15.0093 34.0184 15.0255 34.0951L15.0093 34.1314L15.0497 34.1516C15.078 34.2525 15.1385 34.301 15.2435 34.2808C15.3928 34.3898 15.5624 34.3413 15.7198 34.3413C25.5174 34.3413 35.315 34.3413 45.1125 34.3413C45.2619 34.3413 45.4072 34.3373 45.5566 34.3413C46.3963 34.3736 46.8766 34.8459 46.8645 35.621C46.8524 36.3921 46.3599 36.8523 45.5202 36.8523C41.9355 36.8523 38.3547 36.8523 34.77 36.8523C28.2948 36.8523 21.8156 36.8523 15.3404 36.8563C14.5168 36.8563 13.766 36.7433 13.1645 36.0772C12.8375 35.7139 12.6034 35.3183 12.5105 34.8661C11.7798 31.3177 11.0855 27.7571 10.3588 24.2087C9.57971 20.3979 8.77637 16.5951 7.98917 12.7883C7.46438 10.2491 6.95169 7.70989 6.439 5.17068C6.40671 5.00921 6.3946 4.83966 6.21697 4.76295C5.11894 4.29871 4.05319 3.74566 2.91479 3.38233C2.82194 3.33793 2.72505 3.29352 2.6322 3.24508C2.04282 2.88983 1.38076 2.68799 0.763119 2.38522C0.0526238 2.03805 -0.209775 1.21048 0.181805 0.556503C0.508794 0.0115212 1.22736 -0.153992 1.94189 0.152813C3.68987 0.903677 5.43785 1.65858 7.18583 2.40944C7.96899 2.7445 8.56645 3.27737 8.78848 4.1009C9.02262 4.96884 9.16391 5.86503 9.34153 6.74911C9.41823 7.13262 9.48283 7.5242 9.5676 7.9077C9.60797 8.08129 9.65238 8.28313 9.91881 8.19836C11.0693 8.22662 12.2158 8.25488 13.3663 8.18221C13.5803 8.19432 13.7902 8.21854 14.0042 8.21854C25.6143 8.21854 37.2244 8.23065 48.8305 8.20643C50.0174 8.20643 50.9983 8.48094 51.7007 9.47806C51.7007 9.49824 51.7088 9.51439 51.729 9.51842C51.7209 9.6032 51.7371 9.6799 51.8178 9.72027H51.8218ZM11.9978 19.3806C11.9978 19.3806 11.9897 19.4048 11.9897 19.4129C11.9938 19.4331 12.0059 19.4532 12.0099 19.4734C12.0664 19.7399 12.123 20.0023 12.1795 20.2687C12.1754 20.3333 12.1553 20.3979 12.1674 20.4544C12.3854 21.5444 12.5791 22.6384 12.8456 23.7162C13.0111 24.3904 13.0232 25.1049 13.3461 25.7427L13.3663 25.989C13.3017 26.102 13.33 26.1828 13.439 26.2473C13.435 26.2635 13.4228 26.2796 13.4269 26.2918C13.435 26.32 13.4471 26.3523 13.4592 26.3806C13.4309 26.8448 13.6207 27.2768 13.6731 27.7249C13.7135 28.0761 13.883 28.1447 14.1979 28.1447C24.6333 28.1407 35.0687 28.1447 45.5041 28.1447C45.8755 28.1447 46.0249 28.0236 45.9562 27.6562C45.9724 27.5916 45.9845 27.523 46.0006 27.4584C46.0773 27.41 46.1137 27.3535 46.0531 27.2687C46.1419 27.0911 46.146 26.8973 46.146 26.7035C46.263 26.5864 46.3236 26.4532 46.255 26.2837C46.3397 26.0778 46.3518 25.8638 46.3559 25.6458C46.5658 25.226 46.6425 24.7779 46.6344 24.3096C46.6425 24.2652 46.6506 24.2168 46.6546 24.1724C46.7394 24.1038 46.8201 24.0351 46.7273 23.9181C46.7354 23.8696 46.7434 23.8252 46.7515 23.7768C46.8807 23.5426 46.9574 23.2964 46.9251 23.0259C46.9816 22.7595 47.0381 22.4971 47.0946 22.2306C47.2077 22.1176 47.1956 21.9803 47.1552 21.8431C47.1673 21.7745 47.1794 21.7058 47.1915 21.6372C47.5387 20.4746 47.7567 19.2877 47.9424 18.0928C48.011 18.004 48.0191 17.9031 48.0029 17.7981C48.0796 17.7053 48.1119 17.6084 48.0352 17.4953C48.0352 17.4509 48.0393 17.4106 48.0433 17.3662C48.2653 17.1926 48.2088 16.9463 48.2088 16.7122C48.2694 16.478 48.342 16.2439 48.3905 16.0098C48.7054 14.5161 49.0122 13.0225 49.3311 11.5328C49.4926 10.7779 49.5006 10.7779 48.7296 10.7779C48.5802 10.7779 48.4349 10.7779 48.2855 10.7779C35.9932 10.7779 23.7008 10.7779 11.4044 10.7779C11.1097 10.7779 10.815 10.7779 10.5163 10.7779C10.3144 10.7779 10.2014 10.8466 10.2539 11.0726C10.4396 11.9042 10.6212 12.7358 10.8069 13.5674C10.8029 13.7087 10.7867 13.85 10.9119 13.955C10.9159 14.0196 10.924 14.0882 10.928 14.1528C10.928 14.1851 10.9321 14.2133 10.9361 14.2456C10.9523 14.3143 10.9684 14.3789 10.9846 14.4475C10.9361 14.5282 10.9523 14.5888 11.037 14.6332C11.0532 14.7099 11.0693 14.7866 11.0855 14.8633C11.033 14.9279 11.0491 14.9804 11.1097 15.0288C11.1218 15.1015 11.1339 15.1741 11.146 15.2468C11.1137 15.3558 11.1299 15.4527 11.2268 15.5253C11.2429 15.602 11.2591 15.6787 11.2712 15.7554C11.2227 15.8483 11.2308 15.9371 11.3075 16.0138C11.3156 16.0542 11.3196 16.0945 11.3277 16.1349C11.3438 16.1833 11.364 16.2318 11.3802 16.2802C11.4165 16.4942 11.4528 16.7081 11.4892 16.9181C11.4407 16.9948 11.4448 17.0594 11.5336 17.1038C11.5538 17.1845 11.5739 17.2612 11.5941 17.3419L11.5739 17.3702L11.6062 17.3985C11.6264 17.8869 11.7516 18.3552 11.8929 18.8194L11.8686 18.8396H11.9009C11.9292 18.989 11.9615 19.1343 11.9897 19.2797C11.9817 19.2877 11.9655 19.3039 11.9696 19.3079C11.9776 19.3281 11.9897 19.3483 12.0019 19.3685V19.3886L11.9978 19.3806Z" fill="#6C5A58"/>
<path d="M25.2107 46.6054C24.2176 47.5581 23.063 48.1273 21.6542 48.087C20.9638 48.0668 20.3139 47.8851 19.6882 47.6025C18.9858 47.0939 18.2793 46.5852 17.8595 45.79C16.9794 44.1227 16.9794 42.4474 18.0734 40.9094C19.2038 39.3229 20.8024 38.685 22.7643 39.0645C23.6322 39.23 24.3306 39.6943 25.0088 40.215C25.0371 40.2433 25.0694 40.2715 25.0976 40.2998C25.1986 40.5097 25.352 40.6752 25.5377 40.8125C25.5417 40.8488 25.5619 40.873 25.5982 40.8851C25.6466 40.9861 25.683 41.0951 25.7395 41.1919C26.3773 42.3182 26.5025 43.5051 26.1876 44.7485C26.01 45.4428 25.6103 46.0201 25.2107 46.6014V46.6054ZM21.8035 45.5316C22.9581 45.5235 23.83 44.6516 23.83 43.5091C23.83 42.3546 22.95 41.4786 21.8035 41.4907C20.6449 41.5028 19.7689 42.3748 19.773 43.5172C19.773 44.6516 20.6772 45.5437 21.8035 45.5357V45.5316Z" fill="#6C5A58"/>
<path d="M33.2803 44.151C33.2763 44.0138 33.2682 43.8805 33.2642 43.7433C33.2884 43.711 33.2844 43.6827 33.2561 43.6545C33.2561 43.5859 33.2561 43.5172 33.2561 43.4446C33.2844 43.4163 33.2844 43.388 33.2642 43.3557C33.2642 43.2871 33.2642 43.2185 33.2682 43.1539C33.2682 43.1216 33.2682 43.0933 33.2682 43.0611C33.2763 42.9924 33.2844 42.9238 33.2924 42.8552C33.3449 42.7018 33.4055 42.5524 33.4458 42.395C33.9908 40.1949 36.094 38.7254 38.3587 38.9757C40.6396 39.226 42.3997 41.196 42.4118 43.489C42.4158 44.4376 42.0888 45.2773 41.669 46.1008L41.673 46.0928C41.1886 46.6458 40.6477 47.1343 40.0623 47.5703H40.0381L40.022 47.5905C39.3195 47.8569 38.5889 48.0143 37.8501 48.1233C37.7815 48.1233 37.7169 48.1233 37.6483 48.1193C37.5756 48.091 37.5029 48.0426 37.4303 48.0345C35.5571 47.8165 34.2774 46.8356 33.5992 45.0755C33.4822 44.7727 33.3934 44.4619 33.2884 44.151H33.2803ZM39.1782 42.0316L39.1661 42.0195C39.0975 41.854 38.9522 41.7814 38.8028 41.7087C38.0641 41.3413 37.1477 41.4261 36.5865 41.9146C35.8922 42.5201 35.6177 43.2508 35.9487 44.151C36.4937 45.5478 38.0358 45.9757 39.1258 45.0351C40.1269 44.3246 40.1511 42.7987 39.1742 42.0276L39.1782 42.0316Z" fill="#6C5A58"/>
<path d="M29.8813 14.8391C32.8565 14.8391 35.8317 14.8391 38.8069 14.8391C39.695 14.8391 40.2682 15.3477 40.2682 16.143C40.2682 16.8938 39.6869 17.4065 38.819 17.4065C32.8363 17.4065 26.8496 17.4065 20.8669 17.4065C19.9667 17.4065 19.4015 16.8979 19.4055 16.1066C19.4096 15.3517 19.9828 14.8431 20.8548 14.8431C23.8623 14.8431 26.8738 14.8431 29.8813 14.8431V14.8391Z" fill="#6C5A58"/>
<path d="M29.7966 24.0311C27.1524 24.0311 24.5082 24.0069 21.8641 24.0432C20.875 24.0553 20.3744 23.369 20.3946 22.7554C20.4148 21.9723 20.9679 21.4757 21.8842 21.4757C27.2049 21.4717 32.5296 21.4677 37.8502 21.4757C38.5809 21.4757 39.0936 21.8633 39.2429 22.489C39.3842 23.0865 39.1218 23.6234 38.5526 23.9221C38.3185 24.0472 38.0763 24.0351 37.834 24.0351C35.1576 24.0351 32.4811 24.0351 29.8006 24.0351L29.7966 24.0311Z" fill="#6C5A58"/>
</svg>
