<svg width="42" height="98" viewBox="0 0 42 98" fill="none" xmlns="http://www.w3.org/2000/svg">
<g filter="url(#filter0_d_244_227)">
<rect x="9.32068" y="62.4774" width="27.8688" height="27.8688" rx="3.38506" transform="rotate(13.1088 9.32068 62.4774)" fill="#98867F"/>
</g>
<g filter="url(#filter1_f_244_227)">
<rect x="9" y="16.7513" width="19.365" height="19.365" rx="2.35216" transform="rotate(-27.0378 9 16.7513)" fill="#9C8983" fill-opacity="0.76"/>
</g>
<g filter="url(#filter2_b_244_227)">
<path d="M39.4848 67.3685C39.5574 66.9036 39.5114 66.4425 39.273 66.01C38.712 64.9957 37.8929 64.2919 36.7805 63.9756C35.2771 63.5477 34.0875 64.1424 33.046 65.1918C28.161 70.1099 23.267 75.0205 18.3882 79.9443C18.0578 80.2779 17.9252 80.2351 17.6722 79.8651C16.2777 77.8282 14.8409 75.8204 13.4489 73.782C12.9044 72.9844 12.1897 72.4355 11.328 72.0491C10.0252 71.4648 8.5767 71.794 7.64993 72.8561C6.91734 73.6966 6.66129 75.5197 7.44789 76.66C8.56167 78.2739 9.5934 79.9433 10.6663 81.5844C11.8912 83.4587 13.1212 85.3298 14.3499 87.2016C14.6018 87.5995 14.8384 88.0078 15.1082 88.3936C15.9972 89.6647 17.3706 89.6766 18.366 88.7234C20.9185 86.2792 23.5343 83.9015 26.1109 81.4835C26.8864 80.7556 27.7091 80.0754 28.4124 79.2724C28.4546 79.2585 28.4687 79.2304 28.4537 79.1881L28.4375 79.1789C28.5591 79.1856 28.6262 79.1429 28.6105 79.0248C28.8543 78.994 28.9742 78.7854 29.1313 78.6394C32.0293 75.9451 34.9066 73.2287 37.8272 70.558C38.7893 69.6781 39.2924 68.6124 39.4871 67.368L39.4848 67.3685ZM17.3395 79.9021C17.3654 79.9438 17.3913 79.9855 17.4163 80.0269C17.3903 79.9853 17.3644 79.9436 17.3384 79.9019L17.3395 79.9021ZM14.6328 75.8789C14.6583 75.9226 14.6827 75.9661 14.7071 76.0096C14.6827 75.9661 14.6585 75.9216 14.6328 75.8789C14.5192 75.685 14.3896 75.5036 14.1687 75.3949C14.3889 75.5023 14.5194 75.684 14.6328 75.8789Z" fill="white" fill-opacity="0.73"/>
</g>
<g filter="url(#filter3_f_244_227)">
<path d="M29.7744 3.67501C29.6047 3.39557 29.3736 3.17123 29.0532 3.04833C28.3008 2.76094 27.5504 2.75406 26.8179 3.08443C25.8276 3.5307 25.4623 4.37952 25.3792 5.40353C24.9879 10.2043 24.5884 15.0051 24.203 19.8062C24.1769 20.1314 24.0873 20.1681 23.7871 20.0849C22.1339 19.6277 20.4712 19.205 18.8186 18.7459C18.1721 18.5662 17.5466 18.5949 16.9157 18.7756C15.962 19.049 15.3401 19.8728 15.3237 20.8521C15.3111 21.6267 15.9919 22.7098 16.9205 22.9631C18.2352 23.3213 19.5311 23.7458 20.8362 24.1368C22.3265 24.5836 23.8181 25.0264 25.3093 25.4701C25.6214 25.5686 25.9299 25.6795 26.2461 25.7635C27.2878 26.0403 28.0226 25.4314 28.1243 24.4792C28.385 22.0374 28.7092 19.6026 28.9944 17.1639C29.0802 16.4298 29.2125 15.7 29.2263 14.9584C29.2424 14.9321 29.2374 14.9109 29.2104 14.8951L29.1977 14.8975C29.2653 14.8466 29.2818 14.7938 29.2206 14.738C29.3363 14.6125 29.3065 14.448 29.3245 14.3001C29.6567 11.5706 29.968 8.83876 30.3228 6.11175C30.4396 5.21334 30.2294 4.42191 29.7753 3.67369L29.7744 3.67501ZM23.627 20.2536C23.6594 20.2641 23.6919 20.2747 23.7237 20.2855C23.6912 20.275 23.6588 20.2645 23.6263 20.2539L23.627 20.2536ZM20.3869 19.3293C20.42 19.3411 20.4525 19.3533 20.4849 19.3654C20.4525 19.3533 20.4197 19.3405 20.3869 19.3293C20.2396 19.2772 20.0896 19.2389 19.9235 19.2801C20.0886 19.2386 20.2393 19.2766 20.3869 19.3293Z" fill="white" fill-opacity="0.71"/>
</g>
<defs>
<filter id="filter0_d_244_227" x="0.357755" y="61.6801" width="42.4378" height="42.4378" filterUnits="userSpaceOnUse" color-interpolation-filters="sRGB">
<feFlood flood-opacity="0" result="BackgroundImageFix"/>
<feColorMatrix in="SourceAlpha" type="matrix" values="0 0 0 0 0 0 0 0 0 0 0 0 0 0 0 0 0 0 127 0" result="hardAlpha"/>
<feOffset dx="1.84501" dy="3.69002"/>
<feGaussianBlur stdDeviation="2.58301"/>
<feComposite in2="hardAlpha" operator="out"/>
<feColorMatrix type="matrix" values="0 0 0 0 0.596078 0 0 0 0 0.52549 0 0 0 0 0.498039 0 0 0 0.75 0"/>
<feBlend mode="normal" in2="BackgroundImageFix" result="effect1_dropShadow_244_227"/>
<feBlend mode="normal" in="SourceGraphic" in2="effect1_dropShadow_244_227" result="shape"/>
</filter>
<filter id="filter1_f_244_227" x="7.90894" y="6.85737" width="28.2336" height="28.2336" filterUnits="userSpaceOnUse" color-interpolation-filters="sRGB">
<feFlood flood-opacity="0" result="BackgroundImageFix"/>
<feBlend mode="normal" in="SourceGraphic" in2="BackgroundImageFix" result="shape"/>
<feGaussianBlur stdDeviation="0.951351" result="effect1_foregroundBlur_244_227"/>
</filter>
<filter id="filter2_b_244_227" x="4.25844" y="61.1275" width="37.9659" height="30.978" filterUnits="userSpaceOnUse" color-interpolation-filters="sRGB">
<feFlood flood-opacity="0" result="BackgroundImageFix"/>
<feGaussianBlur in="BackgroundImageFix" stdDeviation="1.35402"/>
<feComposite in2="SourceAlpha" operator="in" result="effect1_backgroundBlur_244_227"/>
<feBlend mode="normal" in="SourceGraphic" in2="effect1_backgroundBlur_244_227" result="shape"/>
</filter>
<filter id="filter3_f_244_227" x="13.4208" y="0.931893" width="18.8365" height="26.8014" filterUnits="userSpaceOnUse" color-interpolation-filters="sRGB">
<feFlood flood-opacity="0" result="BackgroundImageFix"/>
<feBlend mode="normal" in="SourceGraphic" in2="BackgroundImageFix" result="shape"/>
<feGaussianBlur stdDeviation="0.951351" result="effect1_foregroundBlur_244_227"/>
</filter>
</defs>
</svg>
