<svg width="32" height="36" viewBox="0 0 32 36" fill="none" xmlns="http://www.w3.org/2000/svg">
<g filter="url(#filter0_f_2005_3)">
<rect x="2" y="16.7513" width="19.365" height="19.365" rx="2.35216" transform="rotate(-27.0378 2 16.7513)" fill="#9C8983" fill-opacity="0.76"/>
</g>
<g filter="url(#filter1_f_2005_3)">
<path d="M22.7744 3.67501C22.6047 3.39557 22.3736 3.17123 22.0532 3.04833C21.3008 2.76094 20.5504 2.75406 19.8179 3.08443C18.8276 3.5307 18.4623 4.37952 18.3792 5.40353C17.9879 10.2043 17.5884 15.0051 17.203 19.8062C17.1769 20.1314 17.0873 20.1681 16.7871 20.0849C15.1339 19.6277 13.4712 19.205 11.8186 18.7459C11.1721 18.5662 10.5466 18.5949 9.91574 18.7756C8.96202 19.049 8.3401 19.8728 8.32366 20.8521C8.31109 21.6267 8.99189 22.7098 9.92053 22.9631C11.2352 23.3213 12.5311 23.7458 13.8362 24.1368C15.3265 24.5836 16.8181 25.0264 18.3093 25.4701C18.6214 25.5686 18.9299 25.6795 19.2461 25.7635C20.2878 26.0403 21.0226 25.4314 21.1243 24.4792C21.385 22.0374 21.7092 19.6026 21.9944 17.1639C22.0802 16.4298 22.2125 15.7 22.2263 14.9584C22.2424 14.9321 22.2374 14.9109 22.2104 14.8951L22.1977 14.8975C22.2653 14.8466 22.2818 14.7938 22.2206 14.738C22.3363 14.6125 22.3065 14.448 22.3245 14.3001C22.6567 11.5706 22.968 8.83876 23.3228 6.11175C23.4396 5.21334 23.2294 4.42191 22.7753 3.67369L22.7744 3.67501ZM16.627 20.2536C16.6594 20.2641 16.6919 20.2747 16.7237 20.2855C16.6912 20.275 16.6588 20.2645 16.6263 20.2539L16.627 20.2536ZM13.3869 19.3293C13.42 19.3411 13.4525 19.3533 13.4849 19.3654C13.4525 19.3533 13.4197 19.3405 13.3869 19.3293C13.2396 19.2772 13.0896 19.2389 12.9235 19.2801C13.0886 19.2386 13.2393 19.2766 13.3869 19.3293Z" fill="white" fill-opacity="0.71"/>
</g>
<defs>
<filter id="filter0_f_2005_3" x="0.908944" y="6.85737" width="28.2336" height="28.2336" filterUnits="userSpaceOnUse" color-interpolation-filters="sRGB">
<feFlood flood-opacity="0" result="BackgroundImageFix"/>
<feBlend mode="normal" in="SourceGraphic" in2="BackgroundImageFix" result="shape"/>
<feGaussianBlur stdDeviation="0.951351" result="effect1_foregroundBlur_2005_3"/>
</filter>
<filter id="filter1_f_2005_3" x="6.42078" y="0.931893" width="18.8365" height="26.8014" filterUnits="userSpaceOnUse" color-interpolation-filters="sRGB">
<feFlood flood-opacity="0" result="BackgroundImageFix"/>
<feBlend mode="normal" in="SourceGraphic" in2="BackgroundImageFix" result="shape"/>
<feGaussianBlur stdDeviation="0.951351" result="effect1_foregroundBlur_2005_3"/>
</filter>
</defs>
</svg>
