<svg width="40" height="37" viewBox="0 0 40 37" fill="none" xmlns="http://www.w3.org/2000/svg">
<g filter="url(#filter0_d_2006_5)">
<circle cx="25.7918" cy="21.5124" r="11.0083" fill="#95827B"/>
</g>
<g filter="url(#filter1_d_2006_5)">
<circle cx="16.5485" cy="16.6211" r="11.1078" transform="rotate(44.9612 16.5485 16.6211)" fill="url(#paint0_linear_2006_5)" shape-rendering="crispEdges"/>
<circle cx="16.5485" cy="16.6211" r="10.7408" transform="rotate(44.9612 16.5485 16.6211)" stroke="url(#paint1_linear_2006_5)" stroke-width="0.733884" shape-rendering="crispEdges"/>
</g>
<path d="M20.6562 11.6581C20.8681 11.7548 21.0875 11.8396 21.2911 11.9509C22.4313 12.5756 23.1199 13.5072 23.2161 14.783C23.2982 15.8684 22.9853 16.8529 22.2392 17.6652C21.6218 18.3373 20.8235 18.6867 19.8938 18.7574C19.2777 18.8042 18.6832 18.6814 18.0928 18.5218C17.2903 18.3039 16.4874 18.0902 15.6842 17.875C15.6559 17.8674 15.626 17.8629 15.587 17.8546C15.5746 17.8849 15.5591 17.913 15.551 17.9431C15.4851 18.1864 15.4244 18.4318 15.3525 18.6734C15.3231 18.7722 15.3549 18.8018 15.4487 18.8269C16.2318 19.0332 17.0138 19.2441 17.7961 19.4538C18.3437 19.6005 18.8915 19.7466 19.4389 19.894C19.6817 19.959 19.7497 20.0747 19.6876 20.312C19.613 20.5958 19.5355 20.8794 19.4596 21.1628C19.3814 21.4547 19.2796 21.5137 18.9815 21.4339C17.6806 21.0853 16.379 20.7365 15.0781 20.3879C15.0255 20.3739 14.9736 20.3599 14.9061 20.3419C14.8137 20.6868 14.7253 21.0166 14.6368 21.3471C14.5929 21.5108 14.5536 21.6763 14.5037 21.8383C14.4377 22.0521 14.3187 22.1135 14.098 22.055C13.6736 21.942 13.2492 21.829 12.8252 21.7147C12.5999 21.6544 12.5283 21.5334 12.587 21.3142C12.707 20.8665 12.8235 20.418 12.9501 19.9728C12.9824 19.8601 12.9648 19.8154 12.8415 19.7844C12.3041 19.6482 11.77 19.5023 11.2347 19.3581C10.9494 19.2817 10.8862 19.1778 10.9584 18.9032C11.0348 18.615 11.1111 18.3275 11.1897 18.0399C11.2559 17.7953 11.3696 17.7325 11.6213 17.7992C12.1612 17.9425 12.7007 18.0871 13.2396 18.2314C13.2881 18.2445 13.3367 18.2575 13.3933 18.2726L13.6464 17.3282C13.4454 17.2744 13.2492 17.2218 13.0529 17.1692C12.6658 17.0655 12.2787 16.9618 11.8916 16.858C11.6185 16.7849 11.5538 16.6728 11.6253 16.4086C11.7177 16.0693 11.8074 15.7293 11.8984 15.3896C11.9697 15.126 12.0831 15.0645 12.3582 15.1382C12.8768 15.2772 13.3956 15.4183 13.9145 15.5559C14.1384 15.6159 14.1063 15.6389 14.1653 15.4211C14.5943 13.8231 15.0232 12.225 15.4502 10.6258C15.4915 10.472 15.5669 10.3631 15.7385 10.3404C17.3773 10.7795 19.0161 11.2186 20.6548 11.6577L20.6562 11.6581ZM16.0463 16.111C16.068 16.1245 16.0741 16.1311 16.0816 16.1331C17.0196 16.3844 17.9545 16.6504 18.8988 16.8788C19.4561 17.0134 19.9986 16.9259 20.4545 16.5732C21.0719 16.0954 21.2883 15.4414 21.1599 14.6957C21.034 13.9654 20.5381 13.5042 19.8315 13.2925C18.9217 13.0192 17.9993 12.7903 17.0818 12.5431C17.0589 12.5369 17.0334 12.5378 17.0052 12.5351L16.0471 16.1105L16.0463 16.111Z" fill="white"/>
<defs>
<filter id="filter0_d_2006_5" x="11.7835" y="10.5041" width="28.0165" height="28.0165" filterUnits="userSpaceOnUse" color-interpolation-filters="sRGB">
<feFlood flood-opacity="0" result="BackgroundImageFix"/>
<feColorMatrix in="SourceAlpha" type="matrix" values="0 0 0 0 0 0 0 0 0 0 0 0 0 0 0 0 0 0 127 0" result="hardAlpha"/>
<feOffset dy="3"/>
<feGaussianBlur stdDeviation="1.5"/>
<feComposite in2="hardAlpha" operator="out"/>
<feColorMatrix type="matrix" values="0 0 0 0 0 0 0 0 0 0 0 0 0 0 0 0 0 0 0.25 0"/>
<feBlend mode="normal" in2="BackgroundImageFix" result="effect1_dropShadow_2006_5"/>
<feBlend mode="normal" in="SourceGraphic" in2="effect1_dropShadow_2006_5" result="shape"/>
</filter>
<filter id="filter1_d_2006_5" x="2.44067" y="5.51337" width="28.2156" height="28.2155" filterUnits="userSpaceOnUse" color-interpolation-filters="sRGB">
<feFlood flood-opacity="0" result="BackgroundImageFix"/>
<feColorMatrix in="SourceAlpha" type="matrix" values="0 0 0 0 0 0 0 0 0 0 0 0 0 0 0 0 0 0 127 0" result="hardAlpha"/>
<feOffset dy="3"/>
<feGaussianBlur stdDeviation="1.5"/>
<feComposite in2="hardAlpha" operator="out"/>
<feColorMatrix type="matrix" values="0 0 0 0 0 0 0 0 0 0 0 0 0 0 0 0 0 0 0.25 0"/>
<feBlend mode="normal" in2="BackgroundImageFix" result="effect1_dropShadow_2006_5"/>
<feBlend mode="normal" in="SourceGraphic" in2="effect1_dropShadow_2006_5" result="shape"/>
</filter>
<linearGradient id="paint0_linear_2006_5" x1="10.4294" y1="2.60575" x2="20.2737" y2="25.4455" gradientUnits="userSpaceOnUse">
<stop stop-color="white" stop-opacity="0.8"/>
<stop offset="1" stop-color="white" stop-opacity="0.2"/>
</linearGradient>
<linearGradient id="paint1_linear_2006_5" x1="18.7425" y1="-12.4377" x2="16.5485" y2="27.7289" gradientUnits="userSpaceOnUse">
<stop stop-color="white"/>
<stop offset="0.750446" stop-color="white" stop-opacity="0.05"/>
</linearGradient>
</defs>
</svg>
