<svg width="20" height="18" viewBox="0 0 20 18" fill="none" xmlns="http://www.w3.org/2000/svg">
<path d="M10 16.5L9.75564 16.9362L9.99899 17.0725L10.2428 16.9371L10 16.5ZM10 16.5C10.2428 16.9371 10.2429 16.937 10.2431 16.9369L10.2436 16.9366L10.2452 16.9358L10.2508 16.9326L10.2716 16.9209C10.2897 16.9107 10.316 16.8958 10.35 16.8763C10.4181 16.8372 10.517 16.7797 10.6425 16.705C10.8933 16.5557 11.2503 16.3375 11.6782 16.0602C12.533 15.5062 13.6753 14.7131 14.8201 13.7591C15.9625 12.8071 17.122 11.6828 17.9995 10.464C18.8735 9.2501 19.5 7.89771 19.5 6.5C19.5 3.48255 17.0757 1 14.0909 1C12.4546 1 10.9823 1.72178 10 2.8995C9.01768 1.72178 7.54543 1 5.90909 1C2.92434 1 0.5 3.48255 0.5 6.5C0.5 7.8881 1.12717 9.23554 2.00071 10.4468C2.87805 11.6633 4.03723 12.7886 5.17938 13.743C6.32393 14.6995 7.46602 15.4964 8.32067 16.0536C8.74847 16.3325 9.10542 16.5522 9.35618 16.7025C9.48158 16.7777 9.58051 16.8356 9.64854 16.875C9.68255 16.8946 9.70885 16.9097 9.72689 16.9199L9.74767 16.9317L9.75328 16.9349L9.75487 16.9358L9.75535 16.9361C9.75551 16.9361 9.75564 16.9362 10 16.5Z" stroke="#B0B0B0"/>
</svg>
