<svg width="50" height="57" viewBox="0 0 50 57" fill="none" xmlns="http://www.w3.org/2000/svg">
<g filter="url(#filter0_d_244_266)">
<g filter="url(#filter1_d_244_266)">
<ellipse cx="17.5877" cy="42.7422" rx="15.2839" ry="3.19896" transform="rotate(24.9091 17.5877 42.7422)" fill="#98867F"/>
</g>
<g filter="url(#filter2_b_244_266)">
<path d="M42.2032 24.1513C41.1263 32.7539 31.8194 37.3233 26.6473 39.8651C22.819 41.7447 19.3862 42.6144 17.0884 43.0493C15.8483 40.9824 14.1827 37.7175 13.199 33.4284C12.1616 28.8844 9.72181 18.2466 16.2462 11.7275C20.1977 7.77888 27.3309 5.44718 33.6645 8.42545C40.0144 11.4115 42.9109 18.4905 42.2032 24.1513Z" fill="url(#paint0_linear_244_266)"/>
<path d="M16.4714 11.9529L16.4714 11.9529C20.3481 8.07908 27.3407 5.80388 33.5289 8.71378C39.7361 11.6327 42.5802 18.5671 41.887 24.1118C41.3627 28.3003 38.8337 31.5262 35.7595 34.0341C32.6839 36.5432 29.0963 38.3065 26.5069 39.5791C22.8308 41.384 19.5223 42.2497 17.2478 42.6942C16.0328 40.639 14.4538 37.4744 13.5096 33.3572L13.5071 33.3462C12.9878 31.0715 12.1305 27.3168 12.2055 23.3246C12.2806 19.3269 13.2897 15.132 16.4714 11.9529Z" stroke="url(#paint1_linear_244_266)" stroke-opacity="0.2" stroke-width="0.637251"/>
</g>
<g filter="url(#filter3_d_244_266)">
<circle cx="26.6164" cy="21.6899" r="8.4011" transform="rotate(25.5772 26.6164 21.6899)" fill="white"/>
</g>
</g>
<defs>
<filter id="filter0_d_244_266" x="2.65924" y="6.07617" width="46.6483" height="50.7286" filterUnits="userSpaceOnUse" color-interpolation-filters="sRGB">
<feFlood flood-opacity="0" result="BackgroundImageFix"/>
<feColorMatrix in="SourceAlpha" type="matrix" values="0 0 0 0 0 0 0 0 0 0 0 0 0 0 0 0 0 0 127 0" result="hardAlpha"/>
<feOffset dx="3" dy="3"/>
<feGaussianBlur stdDeviation="2"/>
<feComposite in2="hardAlpha" operator="out"/>
<feColorMatrix type="matrix" values="0 0 0 0 0.596078 0 0 0 0 0.52549 0 0 0 0 0.498039 0 0 0 0.62 0"/>
<feBlend mode="normal" in2="BackgroundImageFix" result="effect1_dropShadow_244_266"/>
<feBlend mode="normal" in="SourceGraphic" in2="effect1_dropShadow_244_266" result="shape"/>
</filter>
<filter id="filter1_d_244_266" x="0.53671" y="33.8315" width="34.1021" height="20.3704" filterUnits="userSpaceOnUse" color-interpolation-filters="sRGB">
<feFlood flood-opacity="0" result="BackgroundImageFix"/>
<feColorMatrix in="SourceAlpha" type="matrix" values="0 0 0 0 0 0 0 0 0 0 0 0 0 0 0 0 0 0 127 0" result="hardAlpha"/>
<feOffset dy="1.2745"/>
<feGaussianBlur stdDeviation="1.56127"/>
<feComposite in2="hardAlpha" operator="out"/>
<feColorMatrix type="matrix" values="0 0 0 0 0 0 0 0 0 0 0 0 0 0 0 0 0 0 0.25 0"/>
<feBlend mode="normal" in2="BackgroundImageFix" result="effect1_dropShadow_244_266"/>
<feBlend mode="normal" in="SourceGraphic" in2="effect1_dropShadow_244_266" result="shape"/>
</filter>
<filter id="filter2_b_244_266" x="9.52443" y="4.71834" width="35.141" height="40.6888" filterUnits="userSpaceOnUse" color-interpolation-filters="sRGB">
<feFlood flood-opacity="0" result="BackgroundImageFix"/>
<feGaussianBlur in="BackgroundImageFix" stdDeviation="1.17891"/>
<feComposite in2="SourceAlpha" operator="in" result="effect1_backgroundBlur_244_266"/>
<feBlend mode="normal" in="SourceGraphic" in2="effect1_backgroundBlur_244_266" result="shape"/>
</filter>
<filter id="filter3_d_244_266" x="14.2134" y="13.2869" width="24.8061" height="24.8061" filterUnits="userSpaceOnUse" color-interpolation-filters="sRGB">
<feFlood flood-opacity="0" result="BackgroundImageFix"/>
<feColorMatrix in="SourceAlpha" type="matrix" values="0 0 0 0 0 0 0 0 0 0 0 0 0 0 0 0 0 0 127 0" result="hardAlpha"/>
<feOffset dy="4"/>
<feGaussianBlur stdDeviation="2"/>
<feComposite in2="hardAlpha" operator="out"/>
<feColorMatrix type="matrix" values="0 0 0 0 0 0 0 0 0 0 0 0 0 0 0 0 0 0 0.25 0"/>
<feBlend mode="normal" in2="BackgroundImageFix" result="effect1_dropShadow_244_266"/>
<feBlend mode="normal" in="SourceGraphic" in2="effect1_dropShadow_244_266" result="shape"/>
</filter>
<linearGradient id="paint0_linear_244_266" x1="40.7452" y1="20.4833" x2="12.3074" y2="30.5305" gradientUnits="userSpaceOnUse">
<stop stop-color="#F9F4F2"/>
<stop offset="0.852664" stop-color="white" stop-opacity="0.2"/>
</linearGradient>
<linearGradient id="paint1_linear_244_266" x1="8.48686" y1="31.9792" x2="51.5359" y2="22.7927" gradientUnits="userSpaceOnUse">
<stop stop-color="white" stop-opacity="0.1"/>
<stop offset="0.779181" stop-color="white"/>
</linearGradient>
</defs>
</svg>
