<svg width="40" height="37" viewBox="0 0 40 37" fill="none" xmlns="http://www.w3.org/2000/svg">
<g filter="url(#filter0_b_2006_6)">
<circle cx="19.8134" cy="16.8136" r="13.7487" transform="rotate(44.9612 19.8134 16.8136)" fill="url(#paint0_linear_2006_6)"/>
<circle cx="19.8134" cy="16.8136" r="13.3818" transform="rotate(44.9612 19.8134 16.8136)" stroke="url(#paint1_linear_2006_6)" stroke-width="0.733884"/>
</g>
<path d="M24.8979 10.6705C25.1602 10.7903 25.4318 10.8952 25.6838 11.033C27.0951 11.8062 27.9474 12.9593 28.0664 14.5384C28.1681 15.8819 27.7808 17.1004 26.8573 18.1059C26.0932 18.9378 25.105 19.3702 23.9542 19.4578C23.1917 19.5157 22.4558 19.3637 21.725 19.1661C20.7317 18.8965 19.738 18.632 18.7438 18.3656C18.7087 18.3562 18.6718 18.3506 18.6235 18.3403C18.6081 18.3778 18.5889 18.4126 18.579 18.4499C18.4974 18.751 18.4223 19.0547 18.3332 19.3539C18.2968 19.4761 18.3362 19.5127 18.4523 19.5438C19.4216 19.7992 20.3895 20.0603 21.3578 20.3197C22.0356 20.5013 22.7136 20.6821 23.3912 20.8646C23.6917 20.9451 23.7759 21.0883 23.699 21.382C23.6067 21.7332 23.5108 22.0844 23.4168 22.4351C23.32 22.7964 23.194 22.8695 22.825 22.7706C21.2148 22.3391 19.6038 21.9075 17.9936 21.476C17.9285 21.4586 17.8642 21.4413 17.7807 21.419C17.6663 21.8459 17.5569 22.2542 17.4473 22.6633C17.393 22.8658 17.3444 23.0707 17.2826 23.2712C17.201 23.5358 17.0536 23.6118 16.7804 23.5395C16.2551 23.3996 15.7299 23.2597 15.205 23.1182C14.9262 23.0435 14.8375 22.8939 14.9102 22.6225C15.0587 22.0684 15.203 21.5132 15.3596 20.9621C15.3996 20.8227 15.3778 20.7673 15.2252 20.729C14.56 20.5603 13.899 20.3797 13.2364 20.2013C12.8833 20.1067 12.805 19.9781 12.8943 19.6382C12.989 19.2816 13.0834 18.9257 13.1806 18.5697C13.2626 18.267 13.4034 18.1892 13.7149 18.2718C14.3832 18.4491 15.051 18.6281 15.7179 18.8068C15.778 18.8229 15.8381 18.839 15.9082 18.8578L16.2214 17.6888C15.9727 17.6222 15.7298 17.5571 15.4869 17.492C15.0077 17.3636 14.5286 17.2352 14.0495 17.1069C13.7114 17.0163 13.6313 16.8776 13.7199 16.5506C13.8342 16.1306 13.9452 15.7097 14.0578 15.2893C14.1461 14.963 14.2864 14.8869 14.627 14.9781C15.2689 15.1501 15.911 15.3248 16.5534 15.4952C16.8305 15.5694 16.7907 15.5978 16.8638 15.3283C17.3947 13.3503 17.9256 11.3723 18.4542 9.39281C18.5052 9.20245 18.5986 9.06771 18.811 9.03954C20.8394 9.58305 22.8678 10.1266 24.8962 10.6701L24.8979 10.6705ZM19.1919 16.1822C19.2188 16.1989 19.2264 16.2071 19.2356 16.2095C20.3967 16.5206 21.5539 16.8498 22.7226 17.1326C23.4125 17.2992 24.0839 17.1908 24.6482 16.7543C25.4124 16.1628 25.6803 15.3533 25.5214 14.4304C25.3655 13.5264 24.7517 12.9556 23.8772 12.6935C22.7511 12.3553 21.6093 12.072 20.4737 11.7659C20.4453 11.7583 20.4137 11.7594 20.3788 11.7561L19.193 16.1816L19.1919 16.1822Z" fill="white"/>
<defs>
<filter id="filter0_b_2006_6" x="4.45015" y="1.45027" width="30.7266" height="30.7266" filterUnits="userSpaceOnUse" color-interpolation-filters="sRGB">
<feFlood flood-opacity="0" result="BackgroundImageFix"/>
<feGaussianBlur in="BackgroundImageFix" stdDeviation="0.807273"/>
<feComposite in2="SourceAlpha" operator="in" result="effect1_backgroundBlur_2006_6"/>
<feBlend mode="normal" in="SourceGraphic" in2="effect1_backgroundBlur_2006_6" result="shape"/>
</filter>
<linearGradient id="paint0_linear_2006_6" x1="12.2395" y1="-0.534046" x2="24.4244" y2="27.7361" gradientUnits="userSpaceOnUse">
<stop stop-color="white" stop-opacity="0.8"/>
<stop offset="1" stop-color="white" stop-opacity="0.2"/>
</linearGradient>
<linearGradient id="paint1_linear_2006_6" x1="22.5291" y1="-19.1542" x2="19.8135" y2="30.5623" gradientUnits="userSpaceOnUse">
<stop stop-color="white"/>
<stop offset="0.750446" stop-color="white" stop-opacity="0.05"/>
</linearGradient>
</defs>
</svg>
