<svg width="18" height="22" viewBox="0 0 18 22" fill="none" xmlns="http://www.w3.org/2000/svg">
<path fill-rule="evenodd" clip-rule="evenodd" d="M2.88973 12.6589C0.952104 9.30283 2.15322 4.9612 5.60283 2.96957C9.05244 0.977939 13.413 2.10855 15.3506 5.46462C17.2776 8.80238 16.1001 13.115 12.6937 15.1211C12.6698 15.1304 12.6463 15.1416 12.6233 15.1549C12.6009 15.1678 12.5798 15.1823 12.5602 15.198C9.123 17.1286 4.81292 15.99 2.88973 12.6589ZM12.6859 16.2681C8.84946 18.1822 4.1594 16.8674 2.01966 13.1612C-0.205272 9.30753 1.18764 4.35859 5.1005 2.0995C9.01335 -0.159588 13.9957 1.10859 16.2207 4.96229C18.3647 8.67583 17.1492 13.4064 13.5567 15.767C14.5395 17.4711 15.5202 19.1814 16.4978 20.8864C16.6358 21.1271 16.5526 21.4341 16.3119 21.5721C16.0712 21.7101 15.7643 21.6269 15.6263 21.3862C14.6483 19.6806 13.6681 17.9711 12.6859 16.2681Z" fill="#6C5A58"/>
</svg>
