<svg width="53" height="97" viewBox="0 0 53 97" fill="none" xmlns="http://www.w3.org/2000/svg">
<g opacity="0.72" filter="url(#filter0_d_244_296)">
<path d="M79.8465 97.5854C75.6512 97.6116 71.5313 97.035 67.4678 95.9979C66.8765 95.8482 66.1798 95.8257 65.5961 95.9792C38.2363 103.111 10.4473 85.8593 4.92259 58.2926C-1.24606 27.4912 23.3231 -1.22864 54.8706 0.0405548C58.5537 0.190313 62.2067 1.11132 65.8785 1.64671C66.4924 1.73656 67.1703 1.81893 67.754 1.66543C94.9443 -5.47054 122.575 11.5008 128.412 38.9477C134.574 67.8959 112.874 96.0017 83.1417 97.5779C82.0458 97.6378 80.9424 97.5854 79.8427 97.5854H79.8465ZM66.6129 73.4369C80.9951 59.4795 79.8051 36.5628 66.7673 24.2564C53.432 36.9746 52.66 59.618 66.6129 73.4369ZM39.11 70.6177C46.175 68.1879 54.9874 59.5806 54.0383 46.5928C53.432 38.2513 45.6628 27.8094 39.1929 26.8959C31.2806 40.6849 32.1204 58.7831 39.11 70.6177ZM99.8476 45.9376C99.8476 41.4673 98.1227 34.2902 94.9292 27.9367C94.4811 27.0494 94.0932 26.9109 93.2119 27.3564C84.4711 31.7743 79.5302 38.7979 79.3908 48.5659C79.2477 58.5248 84.087 65.7693 92.9483 70.3893C93.9049 70.8873 94.338 70.7712 94.8313 69.7791C98.1303 63.1486 99.8664 56.1623 99.8476 45.9376ZM114.524 61.3515C121.216 61.4675 127 55.9377 127.109 49.3222C127.222 42.3884 121.773 36.7125 114.889 36.6002C107.967 36.4879 102.295 41.9653 102.194 48.8542C102.092 55.6532 107.598 61.2354 114.524 61.3515ZM18.7889 61.0482C25.6203 61.0295 31.2655 55.4023 31.2429 48.6295C31.2203 41.823 25.5902 36.267 18.7324 36.2895C11.8708 36.3119 6.26704 41.8979 6.28587 48.6969C6.3047 55.5072 11.9311 61.0669 18.7851 61.0482H18.7889ZM40.2323 72.8079C42.4128 76.4246 44.985 79.5208 47.8697 82.3775C48.4911 82.9952 49.071 83.1113 49.8958 82.9016C54.3622 81.7784 58.4784 79.9177 62.218 77.2445C63.1218 76.5968 63.9767 75.878 64.9182 75.1404C59.9923 70.0374 56.7724 64.2043 55.025 57.177C52.1667 64.5713 47.301 69.6406 40.2323 72.8079ZM78.4795 40.2468C81.2813 32.9836 86.1846 27.9405 93.1517 24.8217C90.926 21.1639 88.3237 18.0377 85.4013 15.1624C84.8251 14.597 84.264 14.4697 83.5673 14.7318C80.6713 15.8363 77.6811 16.761 74.9131 18.1163C72.6385 19.232 70.6237 20.8681 68.4733 22.2834C74.1335 29.3706 74.9545 29.9173 78.4795 40.2431V40.2468ZM40.3716 24.642C47.463 27.8618 52.2834 33.006 55.0966 40.3779C56.8666 33.313 60.207 27.4949 65.0199 22.5454C61.7962 19.1871 53.8802 15.095 49.5305 14.5334C49.1614 14.4847 48.6304 14.7093 48.3706 14.9901C46.5629 16.9183 44.7552 18.8502 43.0492 20.8644C42.0852 22.0026 41.3131 23.3017 40.3754 24.642H40.3716ZM78.3251 57.2818C76.5362 64.3054 73.2259 70.1348 68.3904 75.073C71.3656 78.319 79.8804 82.7219 83.9439 83.1225C84.2602 83.1525 84.6858 82.9765 84.9268 82.7556C87.9471 79.9739 90.5532 76.8439 92.7412 73.3733C92.8127 73.2572 92.8278 73.1075 92.8843 72.924C89.5476 71.3777 86.5914 69.3822 84.0908 66.7315C81.5751 64.0621 79.775 60.9658 78.3251 57.278V57.2818ZM82.0006 85.4063C81.9668 85.2865 81.9291 85.163 81.8952 85.0432C76.1709 83.4632 71.1019 80.6852 66.5978 76.7428C62.0486 80.6964 56.908 83.4145 51.0745 85.0057C51.2817 85.2378 51.3645 85.3651 51.4775 85.455C55.8159 88.8433 60.6024 91.4041 65.8559 93.0702C66.3154 93.2162 66.9368 93.1862 67.3849 92.999C70.3148 91.7673 73.2787 90.5954 76.1031 89.154C78.1707 88.102 80.0423 86.668 82.0044 85.4063H82.0006ZM66.8012 20.8943C71.3618 16.937 76.4684 14.2301 82.3057 12.6315C82.0647 12.3769 81.9555 12.2346 81.8199 12.126C77.4966 8.77893 72.7401 6.23679 67.5205 4.57822C67.0309 4.42097 66.3643 4.46965 65.8861 4.66808C63.088 5.8287 60.256 6.93316 57.5708 8.31468C55.4091 9.43038 53.4358 10.9092 51.3796 12.2309C51.4059 12.3394 51.4323 12.4517 51.4587 12.5603C57.1716 14.1665 62.2594 16.8996 66.7974 20.8906L66.8012 20.8943ZM118.839 75.1142C118.666 75.1479 118.621 75.1442 118.595 75.1666C118.478 75.264 118.369 75.3651 118.256 75.4699C109.116 84.1109 98.3111 87.6152 85.7967 85.8855C85.3561 85.8256 84.7573 86.0465 84.3996 86.3386C80.6035 89.4011 76.4835 91.9208 71.9756 93.804C71.6819 93.9275 71.4032 94.0885 71.0153 94.2795C86.4934 97.9785 107.093 92.2203 118.839 75.1105V75.1142ZM14.8723 22.3807C14.9853 22.2908 15.1058 22.2085 15.2112 22.1074C24.3324 13.4963 35.1144 10.0294 47.5872 11.7479C48.0316 11.8078 48.6304 11.5981 48.9919 11.3061C52.7579 8.26601 56.8402 5.75756 61.3104 3.8781C61.6381 3.73958 61.9506 3.5711 62.3875 3.36144C46.6043 -0.438671 26.061 5.73884 14.8723 22.3807ZM71.2036 3.26035C71.5953 3.52243 71.6781 3.60105 71.7798 3.64223C76.5362 5.62653 80.8821 8.27724 84.8477 11.5569C85.1829 11.834 85.8269 11.9014 86.2976 11.8415C97.3394 10.4188 107.203 13.1144 115.845 20.1231C116.768 20.8719 117.634 21.6843 118.527 22.4668C113.138 14.5109 105.915 8.83135 96.9327 5.41686C88.6702 2.27569 80.1741 1.59055 71.1999 3.26035H71.2036ZM61.9582 94.242C61.7096 94.0998 61.5364 93.9725 61.3405 93.8901C56.6896 91.9395 52.4529 89.3262 48.5739 86.1177C48.2312 85.8331 47.6023 85.7246 47.1353 85.7807C35.0164 87.3195 24.4755 83.9911 15.52 75.717C15.3054 75.5186 15.0643 75.3426 14.8384 75.1554C25.9367 91.7411 46.6006 97.9485 61.9582 94.242ZM9.59239 37.027C13.219 34.4437 17.1808 33.4179 21.5644 34.249C25.9706 35.0839 29.2281 37.5961 31.7777 41.5497C32.6928 35.8814 34.4289 30.827 36.9371 26.0236C26.6635 22.6652 14.5748 27.5473 9.59239 37.0308V37.027ZM101.708 41.7968C104.22 37.8469 107.523 35.3685 111.936 34.541C116.384 33.7061 120.383 34.863 124.202 37.6934C118.263 26.6525 105.158 23.1332 96.6578 26.2856C99.1735 31.0929 100.812 36.1921 101.708 41.7968ZM9.43422 60.2395C12.673 65.9977 17.4821 69.8278 23.8805 71.5912C28.1435 72.7668 32.4255 72.7742 36.6094 71.5275C35.5587 68.8768 34.4515 66.432 33.6268 63.8973C32.8058 61.3777 32.271 58.7644 31.5668 56.0313C29.1641 59.8089 25.8727 62.2537 21.5117 63.0774C17.0942 63.9123 13.091 62.864 9.43422 60.2358V60.2395ZM96.4092 71.7072C102.57 73.3733 108.351 72.9053 113.91 70.1423C118.271 67.9745 123.268 63.0924 123.743 60.5727C120.124 63.1972 116.162 64.2268 111.782 63.3769C107.383 62.5271 104.133 60.0149 101.648 56.0837C100.725 61.6734 99.0454 66.7278 96.4092 71.7035V71.7072ZM87.7174 14.1515C87.9885 14.4548 88.1731 14.6382 88.335 14.8404C90.4816 17.566 92.6772 20.2579 94.7409 23.0434C95.2832 23.7772 95.6598 23.9606 96.5561 23.7472C105.282 21.6394 113.157 23.3803 120.127 29.0412C120.504 29.3482 120.888 29.6514 121.268 29.9584C114.094 18.1051 99.5576 12.2758 87.7174 14.1515ZM121.099 68.1542C121.031 68.158 120.948 68.1392 120.899 68.1729C120.771 68.2515 120.655 68.3526 120.538 68.45C113.311 74.5189 105.116 76.3722 95.9686 73.9798C95.3698 73.8225 95.125 74.0097 94.7786 74.4665C92.7449 77.1397 90.6661 79.7754 88.5873 82.4186C88.2672 82.823 87.8831 83.1787 87.499 83.5868C97.1662 86.844 117.382 77.5141 121.095 68.1617L121.099 68.1542ZM12.0177 29.8911C12.6278 29.3819 12.9855 29.0749 13.3508 28.7791C13.7613 28.4459 14.1605 28.0977 14.5936 27.7907C21.4891 22.8712 29.0511 21.4672 37.2647 23.6087C37.8936 23.7734 38.2288 23.7135 38.6657 23.1445C40.8913 20.2429 43.1961 17.4012 45.4708 14.5409C45.5988 14.3761 45.708 14.1964 45.8436 13.998C33.092 11.9201 18.6382 18.794 12.0177 29.8948V29.8911ZM45.58 83.4482C45.3465 83.1749 45.1243 82.9391 44.9247 82.6845C42.8082 79.9851 40.6541 77.3157 38.6092 74.5639C38.1008 73.8825 37.7505 73.6616 36.8919 73.8787C29.9663 75.6421 23.3457 74.8147 17.1356 71.2767C15.3543 70.2621 13.7463 68.9479 12.1118 67.806C16.1602 77.3755 35.8487 86.6531 45.58 83.4482Z" fill="#F9F5F2"/>
</g>
<defs>
<filter id="filter0_d_244_296" x="0.372564" y="-2.86215" width="135.622" height="107.734" filterUnits="userSpaceOnUse" color-interpolation-filters="sRGB">
<feFlood flood-opacity="0" result="BackgroundImageFix"/>
<feColorMatrix in="SourceAlpha" type="matrix" values="0 0 0 0 0 0 0 0 0 0 0 0 0 0 0 0 0 0 127 0" result="hardAlpha"/>
<feOffset dx="1.46777" dy="2.20165"/>
<feGaussianBlur stdDeviation="2.5319"/>
<feComposite in2="hardAlpha" operator="out"/>
<feColorMatrix type="matrix" values="0 0 0 0 0 0 0 0 0 0 0 0 0 0 0 0 0 0 0.25 0"/>
<feBlend mode="normal" in2="BackgroundImageFix" result="effect1_dropShadow_244_296"/>
<feBlend mode="normal" in="SourceGraphic" in2="effect1_dropShadow_244_296" result="shape"/>
</filter>
</defs>
</svg>
