<svg width="10" height="9" viewBox="0 0 10 9" fill="none" xmlns="http://www.w3.org/2000/svg">
<path d="M9.99952 0.718285C9.96596 0.993065 9.94294 1.37508 9.86849 1.74713C9.76538 2.26265 9.71273 2.78497 9.61795 3.30122C9.52586 3.80239 9.45092 4.30672 9.36569 4.80911C9.21997 5.66676 9.07278 6.52393 8.92461 7.3811C8.89424 7.55715 8.84355 7.72737 8.75661 7.88567C8.6077 8.15705 8.31895 8.3241 8.04 8.239C7.83673 8.17699 7.63909 8.08823 7.46079 7.96446C7.2536 7.8205 7.04274 7.68214 6.83211 7.54305C6.40499 7.26073 5.96881 6.99081 5.55198 6.69439C5.28478 6.50423 5.01465 6.31967 4.73937 6.14167C4.66125 6.09109 4.58851 6.0303 4.52067 5.96634C4.27233 5.73242 4.2596 5.51454 4.47854 5.25337C4.68378 5.00826 4.9255 4.79938 5.15816 4.58126C5.56447 4.20046 5.9693 3.81819 6.37193 3.4335C6.71162 3.10887 7.04739 2.78035 7.38438 2.45305C7.4221 2.41633 7.4581 2.37718 7.49067 2.33584C7.54284 2.26897 7.53696 2.20113 7.48455 2.1362C7.43263 2.07176 7.3665 2.05158 7.28838 2.07954C7.25801 2.09048 7.22936 2.10751 7.20217 2.12501C6.60043 2.51214 5.996 2.89513 5.39866 3.28857C4.75823 3.71071 4.12759 4.1472 3.48715 4.56958C2.93146 4.93604 2.3351 5.0496 1.68267 4.84947C1.24698 4.71597 0.808345 4.59171 0.373877 4.45457C0.296241 4.43001 0.218605 4.40496 0.149541 4.36046C-0.0236094 4.24958 -0.0505493 4.02805 0.090518 3.8785C0.159092 3.80604 0.246035 3.76178 0.335671 3.72214C0.566375 3.61977 0.800753 3.52518 1.02729 3.41429C1.70961 3.08018 2.41862 2.80686 3.11391 2.50217C3.66153 2.26216 4.21992 2.04647 4.76411 1.79941C5.31491 1.54919 5.87403 1.31964 6.43365 1.09131C6.98371 0.867104 7.5377 0.652387 8.09217 0.439128C8.34247 0.342833 8.59986 0.264533 8.85065 0.169211C8.99392 0.114741 9.13548 0.0605149 9.28561 0.024526C9.74114 -0.0844134 10.0186 0.173588 9.99903 0.718285H9.99952Z" fill="#71605E"/>
</svg>
