<svg width="50" height="40" viewBox="0 0 50 40" fill="none" xmlns="http://www.w3.org/2000/svg">
<path d="M0 17.0599C0.00917866 16.2125 0.963759 15.775 1.52825 16.1204C2.09273 16.4658 2.65722 16.8112 3.21712 17.1704C4.90599 18.2526 6.59486 19.3395 8.28374 20.4263C9.4586 21.1816 10.6381 21.9368 11.8175 22.6921C12.8685 23.369 13.924 24.0414 14.9704 24.7276C15.1861 24.8658 15.3329 24.8796 15.5486 24.7138C17.8525 22.95 20.1701 21.2046 22.4785 19.45C24.25 18.1006 26.0169 16.7421 27.793 15.3974C29.8306 13.85 31.8775 12.3072 33.9151 10.7599C35.0028 9.93553 36.0767 9.10198 37.1644 8.27764C39.1561 6.76251 41.1571 5.25199 43.1489 3.74147C44.6587 2.59476 46.1686 1.44345 47.6785 0.29674C48.4587 -0.297338 49.4087 0.0388456 49.5097 0.964501C49.5326 1.19476 49.4362 1.4895 49.294 1.67371C48.8534 2.24937 48.3669 2.78818 47.8942 3.33621C47.1094 4.25265 46.3247 5.16449 45.5353 6.08093C44.7276 7.0158 43.9199 7.95067 43.1121 8.88553C41.974 10.2026 40.8358 11.5151 39.7023 12.8322C38.6146 14.0941 37.5269 15.3559 36.4347 16.6177C34.7412 18.575 33.0432 20.5322 31.3497 22.4894C29.7251 24.373 28.105 26.2611 26.4758 28.1401C25.4157 29.3651 24.351 30.5809 23.2908 31.8059C22.2215 33.0401 21.1614 34.2789 20.0967 35.5131C18.9493 36.844 17.802 38.1795 16.6409 39.5012C16.0168 40.2058 15.1999 40.1414 14.6721 39.3677C14.1948 38.6677 13.7267 37.9585 13.2586 37.2539C12.4554 36.0519 11.6523 34.8453 10.8492 33.6434C9.27044 31.2717 7.69171 28.9 6.11298 26.5329C4.99319 24.8519 3.85962 23.1802 2.73983 21.5039C1.91375 20.2697 1.08767 19.0355 0.279949 17.7921C0.142269 17.5802 0.0917865 17.3039 0.00458933 17.0599H0Z" fill="#6C5A59"/>
</svg>
