<svg width="140" height="93" viewBox="0 0 140 93" fill="none" xmlns="http://www.w3.org/2000/svg">
<g clip-path="url(#clip0_1_60)">
<path d="M77.0213 53.4897C74.7455 53.504 72.5107 53.188 70.3064 52.6196C69.9857 52.5375 69.6078 52.5252 69.2912 52.6093C54.452 56.5187 39.3758 47.0623 36.381 31.9543C33.0328 15.069 46.3603 -0.673111 63.4752 0.0225725C65.4731 0.104659 67.4546 0.609492 69.4464 0.902951C69.7794 0.952203 70.1471 0.997351 70.4637 0.913212C85.2131 -2.99821 100.201 6.30425 103.368 21.3487C106.71 37.216 94.939 52.6216 78.8108 53.4856C78.2163 53.5184 77.6178 53.4897 77.0213 53.4897ZM69.8427 40.2532C77.6443 32.6027 76.9988 20.0414 69.9265 13.296C62.6928 20.2672 62.274 32.6787 69.8427 40.2532ZM54.9238 38.7079C58.7562 37.3761 63.5365 32.6581 63.0217 25.5392C62.6928 20.967 58.4784 15.2435 54.9688 14.7427C50.6768 22.3009 51.1323 32.221 54.9238 38.7079ZM87.8708 25.1801C87.8708 22.7298 86.9352 18.7958 85.2028 15.3133C84.9597 14.8269 84.7493 14.751 84.2713 14.9952C79.5299 17.4167 76.8497 21.2666 76.7741 26.6207C76.6965 32.0794 79.3215 36.0504 84.1283 38.5827C84.6472 38.8557 84.8821 38.7921 85.1497 38.2482C86.9393 34.6139 87.881 30.7845 87.8708 25.1801ZM95.8338 33.6288C99.4639 33.6924 102.602 30.6614 102.661 27.0352C102.722 23.2346 99.7663 20.1235 96.0319 20.062C92.2772 20.0004 89.2007 23.0027 89.1455 26.7787C89.0904 30.5054 92.077 33.5652 95.8338 33.6288ZM43.9007 33.4626C47.6064 33.4523 50.6686 30.3679 50.6564 26.6556C50.6441 22.9247 47.5901 19.8793 43.87 19.8916C40.148 19.9039 37.1082 22.9658 37.1184 26.6925C37.1287 30.4254 40.1807 33.4729 43.8986 33.4626H43.9007ZM55.5326 39.9084C56.7154 41.8908 58.1107 43.588 59.6755 45.1538C60.0126 45.4924 60.3272 45.556 60.7745 45.4411C63.1974 44.8254 65.4302 43.8055 67.4587 42.3403C67.949 41.9852 68.4127 41.5912 68.9234 41.1869C66.2514 38.3898 64.5048 35.1926 63.5569 31.3407C62.0064 35.3937 59.367 38.1723 55.5326 39.9084ZM76.2797 22.0608C77.7996 18.0796 80.4594 15.3153 84.2386 13.6059C83.0313 11.6009 81.6197 9.88733 80.0345 8.31127C79.7219 8.00139 79.4175 7.93161 79.0396 8.07527C77.4686 8.68066 75.8466 9.18754 74.3451 9.93042C73.1113 10.542 72.0183 11.4388 70.8519 12.2145C73.9223 16.0992 74.3676 16.3988 76.2797 22.0587V22.0608ZM55.6102 13.5073C59.4569 15.2722 62.0718 18.0919 63.5978 22.1326C64.5579 18.2602 66.3699 15.0711 68.9806 12.3581C67.232 10.5173 62.9379 8.27433 60.5784 7.9665C60.3782 7.93982 60.0902 8.06295 59.9492 8.21687C58.9687 9.27373 57.9881 10.3326 57.0627 11.4367C56.5397 12.0606 56.121 12.7727 55.6123 13.5073H55.6102ZM76.196 31.3981C75.2256 35.248 73.4299 38.4432 70.8069 41.15C72.4208 42.9292 77.0396 45.3426 79.2439 45.5622C79.4155 45.5786 79.6463 45.4821 79.7771 45.361C81.4154 43.8363 82.8291 42.1207 84.0159 40.2183C84.0548 40.1547 84.0629 40.0726 84.0936 39.9721C82.2836 39.1245 80.68 38.0307 79.3235 36.5778C77.9589 35.1146 76.9824 33.4174 76.196 31.3961V31.3981ZM78.1918 46.814C78.1734 46.7483 78.153 46.6806 78.1346 46.6149C75.0295 45.7489 72.2798 44.2262 69.8366 42.0653C67.3688 44.2324 64.5804 45.7222 61.416 46.5944C61.5284 46.7216 61.5733 46.7914 61.6346 46.8407C63.9879 48.6979 66.5844 50.1015 69.4342 51.0148C69.6834 51.0948 70.0205 51.0784 70.2635 50.9758C71.8529 50.3006 73.4606 49.6583 74.9927 48.8682C76.1142 48.2915 77.1295 47.5056 78.1939 46.814H78.1918ZM69.9449 11.4531C72.4187 9.28399 75.1888 7.80028 78.3552 6.924C78.2245 6.78446 78.1653 6.70647 78.0917 6.64696C75.7465 4.81233 73.1664 3.4189 70.335 2.5098C70.0695 2.4236 69.7079 2.45028 69.4485 2.55905C67.9306 3.19522 66.3944 3.80061 64.9379 4.55786C63.7653 5.1694 62.6948 5.98001 61.5794 6.70442C61.5937 6.76393 61.608 6.8255 61.6223 6.88501C64.7213 7.76539 67.4812 9.26347 69.9428 11.4511L69.9449 11.4531ZM98.1749 41.1726C98.0809 41.191 98.0564 41.189 98.0421 41.2013C97.9788 41.2547 97.9195 41.3101 97.8582 41.3675C92.9003 46.1039 87.0394 48.0248 80.251 47.0767C80.012 47.0438 79.6872 47.1649 79.4931 47.325C77.4339 49.0036 75.1991 50.3847 72.7538 51.417C72.5944 51.4847 72.4433 51.573 72.2328 51.6776C80.6289 53.7052 91.8033 50.5489 98.1749 41.1705V41.1726ZM41.7761 12.2678C41.8374 12.2186 41.9028 12.1734 41.96 12.118C46.9077 7.39805 52.7564 5.49775 59.5223 6.43969C59.7633 6.47253 60.0882 6.3576 60.2843 6.19754C62.3271 4.53118 64.5415 3.15623 66.9664 2.12604C67.1441 2.05011 67.3137 1.95776 67.5507 1.84284C58.9871 -0.240105 47.8434 3.14597 41.7741 12.2678H41.7761ZM72.3329 1.78743C72.5454 1.93109 72.5903 1.97418 72.6455 1.99675C75.2256 3.0844 77.583 4.53733 79.7342 6.33503C79.916 6.48689 80.2653 6.52383 80.5207 6.491C86.5103 5.71117 91.8605 7.18873 96.5488 11.0304C97.0493 11.4408 97.5191 11.8861 98.0033 12.315C95.08 7.95419 91.1618 4.84106 86.2896 2.96948C81.8076 1.24771 77.199 0.872169 72.3309 1.78743H72.3329ZM67.3178 51.6571C67.1829 51.5791 67.089 51.5093 66.9827 51.4642C64.4598 50.395 62.1616 48.9626 60.0575 47.2039C59.8716 47.0479 59.5305 46.9884 59.2771 47.0192C52.7033 47.8626 46.9854 46.0383 42.1275 41.503C42.0111 41.3942 41.8803 41.2978 41.7577 41.1952C47.778 50.2862 58.9871 53.6887 67.3178 51.6571ZM38.9121 20.2959C40.8793 18.8799 43.0284 18.3176 45.4063 18.7732C47.7964 19.2308 49.5634 20.6078 50.9464 22.7749C51.4428 19.6679 52.3846 16.8975 53.7451 14.2646C48.1723 12.4238 41.6147 15.0998 38.9121 20.298V20.2959ZM88.88 22.9104C90.2425 20.7453 92.0341 19.3868 94.4283 18.9333C96.8409 18.4756 99.0104 19.1098 101.082 20.6612C97.8603 14.6094 90.7512 12.6803 86.1405 14.4082C87.5051 17.0432 88.3938 19.8383 88.88 22.9104ZM38.8283 33.0193C40.5851 36.1756 43.1939 38.2749 46.6646 39.2415C48.9771 39.8859 51.2999 39.89 53.5694 39.2066C52.9995 37.7537 52.3989 36.4136 51.9515 35.0243C51.5062 33.6432 51.2161 32.2108 50.8341 30.7127C49.5307 32.7833 47.7453 34.1234 45.3797 34.5749C42.9834 35.0325 40.8119 34.4579 38.8283 33.0173V33.0193ZM86.0057 39.3051C89.3478 40.2183 92.4835 39.9618 95.4988 38.4473C97.8644 37.2591 100.575 34.5831 100.833 33.202C98.8694 34.6405 96.7204 35.2049 94.3446 34.739C91.9585 34.2732 90.1955 32.8962 88.8473 30.7414C88.3468 33.8053 87.4357 36.5757 86.0057 39.3031V39.3051ZM81.2928 7.75718C81.4399 7.92341 81.54 8.02396 81.6279 8.13478C82.7923 9.62876 83.9833 11.1043 85.1027 12.6311C85.3969 13.0333 85.6012 13.1339 86.0874 13.0169C90.8207 11.8615 95.0922 12.8158 98.8735 15.9186C99.0778 16.0869 99.2862 16.2531 99.4925 16.4214C95.6009 9.92427 87.7155 6.72905 81.2928 7.75718ZM99.3985 37.3576C99.3618 37.3597 99.3168 37.3494 99.2903 37.3679C99.2208 37.411 99.1575 37.4664 99.0942 37.5197C95.174 40.8463 90.7287 41.8621 85.7667 40.5508C85.4419 40.4646 85.3091 40.5672 85.1211 40.8176C84.018 42.2828 82.8903 43.7275 81.7627 45.1764C81.5891 45.398 81.3807 45.5929 81.1723 45.8166C86.4163 47.602 97.3823 42.488 99.3965 37.3617L99.3985 37.3576ZM40.2277 16.3845C40.5586 16.1054 40.7527 15.9371 40.9508 15.775C41.1735 15.5923 41.39 15.4015 41.625 15.2332C45.3654 12.5367 49.4674 11.7671 53.9229 12.9409C54.264 13.0312 54.4458 12.9984 54.6828 12.6865C55.8901 11.0961 57.1403 9.53846 58.3742 7.97061C58.4437 7.88031 58.5029 7.78181 58.5764 7.67304C51.6594 6.53409 43.819 10.3019 40.2277 16.3865V16.3845ZM58.4335 45.7407C58.3068 45.5909 58.1863 45.4616 58.078 45.3221C56.9299 43.8424 55.7614 42.3793 54.6522 40.8709C54.3764 40.4974 54.1864 40.3763 53.7206 40.4954C49.9638 41.4619 46.3725 41.0084 43.0039 39.0691C42.0376 38.513 41.1653 37.7927 40.2787 37.1668C42.4748 42.4121 53.1548 47.4973 58.4335 45.7407Z" fill="black"/>
<path d="M37.7946 63.1533C38.4177 63.1533 38.9345 63.1082 39.437 63.1759C39.6475 63.2046 39.8824 63.4365 40.0111 63.6376C41.8435 66.5312 43.6616 69.4329 45.4818 72.3347C45.6003 72.5256 45.727 72.7102 45.9272 73.014V63.2128H47.4246V75.101C46.8056 75.101 46.2111 75.14 45.6289 75.0784C45.4471 75.0579 45.2591 74.785 45.1345 74.59C43.3327 71.7252 41.5432 68.8563 39.7476 65.9874C39.6311 65.8006 39.5045 65.618 39.3083 65.3225V75.1113C38.9672 75.1113 38.6628 75.0846 38.3666 75.1174C37.8865 75.1708 37.7823 74.9574 37.7844 74.512C37.8028 72.0946 37.7926 69.6771 37.7926 67.2597C37.7926 65.9196 37.7926 64.5796 37.7926 63.1574L37.7946 63.1533Z" fill="black"/>
<path d="M50.2008 75.1852V63.139C52.3969 63.2518 54.5888 62.864 56.7195 63.5186C59.3119 64.3148 60.7214 66.7179 60.4007 69.6587C60.2087 71.4112 59.6592 72.9873 58.1515 74.0175C57.553 74.4259 56.84 74.8342 56.1455 74.902C54.1905 75.0908 52.2191 75.101 50.2008 75.1852ZM51.9086 73.6768C52.9709 73.6768 53.9801 73.7404 54.977 73.6625C56.8441 73.5188 58.1924 72.2896 58.5499 70.4365C58.6725 69.7941 58.7195 69.119 58.6766 68.4664C58.5683 66.8205 57.8778 65.5236 56.2558 64.9059C54.8503 64.3723 53.3897 64.5734 51.9066 64.5549V73.6748L51.9086 73.6768Z" fill="black"/>
<path d="M101.458 87.7239C102.563 89.4149 103.619 91.0279 104.769 92.7845C104.066 92.7845 103.505 92.8153 102.951 92.764C102.802 92.7496 102.649 92.5116 102.542 92.3454C101.695 91.0032 100.871 89.6447 100.001 88.3149C99.8643 88.1056 99.5334 87.9209 99.2821 87.9065C98.4221 87.8573 97.5559 87.9086 96.6918 87.8778C96.2403 87.8614 96.1382 88.044 96.1463 88.4586C96.1688 89.6981 96.132 90.9376 96.1647 92.1771C96.177 92.6717 96.0197 92.8215 95.5355 92.805C94.2955 92.7619 94.4753 92.9302 94.4733 91.7605C94.4651 88.3518 94.4814 84.9432 94.459 81.5366C94.4549 81.0071 94.5795 80.8183 95.1392 80.8307C96.845 80.8676 98.5528 80.8266 100.259 80.8532C101.478 80.8738 102.651 81.1118 103.503 82.0948C105.018 83.8453 104.283 86.6773 102.126 87.4838C101.936 87.5556 101.742 87.6192 101.458 87.7198V87.7239ZM98.4629 82.3041C98.4629 82.2836 98.4629 82.261 98.4629 82.2405C97.846 82.2405 97.229 82.2467 96.6142 82.2384C96.3261 82.2343 96.1484 82.298 96.1525 82.6448C96.1647 83.8001 96.1463 84.9576 96.1729 86.1129C96.1749 86.2484 96.3833 86.4926 96.4977 86.4926C97.893 86.4987 99.2964 86.5439 100.683 86.4269C101.909 86.3243 102.559 85.4829 102.551 84.2947C102.545 83.1783 101.905 82.456 100.677 82.3185C99.9481 82.2364 99.2024 82.3041 98.4629 82.3041Z" fill="black"/>
<path d="M118.342 65.4887V75.062H116.895V63.1554C117.48 63.1554 118.035 63.1143 118.579 63.1779C118.765 63.1985 118.967 63.4488 119.087 63.6417C120.895 66.5025 122.693 69.3693 124.493 72.2362C124.621 72.4414 124.756 72.6446 124.999 72.8231V63.1923H126.489V75.0949C125.874 75.0949 125.263 75.1277 124.662 75.0723C124.501 75.0579 124.335 74.7911 124.219 74.6085C122.419 71.7437 120.626 68.8727 118.832 66.0038C118.716 65.817 118.589 65.6344 118.466 65.4497C118.423 65.462 118.383 65.4743 118.34 65.4887H118.342Z" fill="black"/>
<path d="M11.4113 69.0574C11.5278 68.3268 11.5788 67.5778 11.7749 66.8698C12.3 64.9674 13.5338 63.7341 15.4418 63.221C16.6349 62.8988 17.8463 62.8865 19.0454 63.1595C21.0903 63.6253 22.4324 64.8874 22.9922 66.9129C23.462 68.608 23.4028 70.3072 22.747 71.9571C21.8461 74.2165 19.5745 75.4725 16.8167 75.259C13.4215 74.9943 11.4849 72.7451 11.4093 69.0574H11.4113ZM13.1927 69.2708C13.2397 69.6299 13.2744 70.1697 13.3867 70.6909C13.7749 72.4927 15.0088 73.607 16.8269 73.8348C19.0597 74.116 20.7818 73.0037 21.3293 70.8941C21.6296 69.7367 21.6419 68.5546 21.3477 67.3972C21.0065 66.0571 20.2446 65.0126 18.8718 64.6247C16.3121 63.9044 13.5073 64.8033 13.2417 68.411C13.2254 68.6367 13.2151 68.8645 13.1927 69.2688V69.2708Z" fill="black"/>
<path d="M134.924 70.5309V69.1169H139.937C139.951 69.316 139.978 69.513 139.978 69.7079C139.982 70.617 139.937 71.5303 139.994 72.4353C140.033 73.0673 139.804 73.4634 139.318 73.8348C136.948 75.6428 132.999 75.768 130.797 74.079C129.876 73.3731 129.3 72.4291 128.997 71.3312C128.554 69.7223 128.558 68.099 129.087 66.5066C129.602 64.9592 130.638 63.8777 132.182 63.3626C133.896 62.7921 135.63 62.8188 137.332 63.4365C138.456 63.8449 139.205 64.6699 139.73 65.8478C139.254 65.9915 138.815 66.1474 138.362 66.2398C138.241 66.2644 138.033 66.1207 137.947 65.9956C136.756 64.2594 135.036 64.1876 133.25 64.5734C131.606 64.9305 130.817 66.1577 130.54 67.7502C130.346 68.8645 130.352 69.9809 130.709 71.0603C131.212 72.5769 132.221 73.5393 133.837 73.7835C135.163 73.9846 136.415 73.7651 137.61 73.1597C138.178 72.8724 138.46 72.4968 138.425 71.8011C138.362 70.5267 138.409 70.5247 137.142 70.5247C136.425 70.5247 135.708 70.5247 134.924 70.5247V70.5309Z" fill="black"/>
<path d="M61.6652 83.205V92.7414H60.223V80.8532C60.7929 80.8532 61.3465 80.806 61.8858 80.8779C62.0881 80.9045 62.3026 81.1734 62.4333 81.3806C64.2555 84.2598 66.0614 87.1452 67.8734 90.0305C67.9817 90.2029 68.1002 90.3712 68.3065 90.6811V80.96C68.4291 80.9086 68.4822 80.8676 68.5394 80.8635C69.4069 80.7992 69.8407 81.2048 69.8407 82.0804V92.7866C69.191 92.7866 68.5823 92.8194 67.9817 92.764C67.8203 92.7496 67.6528 92.4829 67.5363 92.3002C65.7346 89.4333 63.943 86.5624 62.1473 83.6914C62.0329 83.5067 61.9063 83.3302 61.7837 83.1496C61.7428 83.1681 61.704 83.1866 61.6632 83.205H61.6652Z" fill="black"/>
<path d="M79.7321 63.1923H88.6553C88.6879 63.2723 88.7145 63.3093 88.7165 63.3483C88.786 64.165 88.4162 64.5734 87.6073 64.5734C85.7953 64.5734 83.9853 64.5734 82.1733 64.5734C81.9506 64.5734 81.728 64.5734 81.4522 64.5734V68.2673H88.1915V69.6505H81.4461V73.685H89.0536V75.0497H79.7321V63.1923Z" fill="black"/>
<path d="M50.4663 82.2672V85.9221C50.7013 85.9344 50.9178 85.957 51.1364 85.957C52.9055 85.959 54.6746 85.957 56.4437 85.957C57.0225 85.957 57.3044 86.2525 57.2894 86.8435C57.2854 86.9851 57.2649 87.1247 57.2445 87.3401H50.4847V91.3788C50.7278 91.3788 50.9648 91.3788 51.2038 91.3788C53.3018 91.3788 55.3998 91.4034 57.4978 91.3644C58.1209 91.3521 58.127 91.6538 58.1372 92.1176C58.1474 92.5957 58.0575 92.8153 57.506 92.8112C54.791 92.7845 52.0761 92.7886 49.3612 92.8071C48.8872 92.8112 48.7197 92.6819 48.7218 92.1833C48.7401 88.6084 48.7401 85.0335 48.7218 81.4586C48.7197 80.9538 48.8913 80.8327 49.3632 80.8368C51.976 80.8553 54.5888 80.8635 57.1996 80.8327C57.7838 80.8266 57.8144 81.1016 57.8104 81.5489C57.8063 81.986 57.8022 82.2857 57.2077 82.2754C55.2139 82.2426 53.2181 82.2631 51.2222 82.2631C50.9811 82.2631 50.738 82.2631 50.4684 82.2631L50.4663 82.2672Z" fill="black"/>
<path d="M83.0701 80.8881H92.0157V82.2426H84.7882V85.959H91.5357V87.3381H84.7902V91.3747H92.3855V92.7373H83.0701V80.8861V80.8881Z" fill="black"/>
<path d="M75.2725 68.1606V63.2005H76.9416V75.1031C76.4799 75.1031 76.0284 75.1441 75.5912 75.0784C75.4605 75.0579 75.2889 74.7398 75.2848 74.5551C75.2582 73.1699 75.2705 71.7847 75.2705 70.4016C75.2705 70.1779 75.2705 69.9542 75.2705 69.6751H69.0031C69.0031 70.2661 69.0031 70.8387 69.0031 71.4112C69.0031 72.466 68.9888 73.5209 69.0092 74.5736C69.0174 74.9717 68.8928 75.1441 68.4821 75.1133C68.1206 75.0887 67.7549 75.1072 67.3545 75.1072V63.2087H69.0031C69.0031 63.8572 69.0031 64.4913 69.0031 65.1234C69.0031 65.9709 68.9826 66.8185 69.0194 67.666C69.0276 67.8364 69.2482 68.138 69.3749 68.1401C71.3054 68.1709 73.2358 68.1606 75.2725 68.1606Z" fill="black"/>
<path d="M9.69532 65.7903C9.20504 65.8806 8.78421 65.9894 8.3593 66.0202C8.21835 66.0304 7.98751 65.8704 7.92622 65.7329C7.5626 64.9079 6.90276 64.44 6.06111 64.4031C5.15204 64.362 4.22051 64.4339 3.32574 64.6001C2.64956 64.7273 2.27572 65.2732 2.23078 66.0038C2.18584 66.7508 2.54334 67.2576 3.19092 67.506C3.91817 67.785 4.68423 67.9533 5.43191 68.1791C6.37571 68.4643 7.34401 68.6859 8.25103 69.0635C9.4032 69.5438 9.96906 70.4816 9.96702 71.756C9.96702 73.0591 9.42567 74.0708 8.25308 74.6064C6.16121 75.5627 4.01214 75.5381 1.90393 74.6557C0.876377 74.2268 0.288039 73.3628 -0.00204468 72.1828C0.49028 72.0823 0.939705 71.9633 1.3973 71.914C1.50762 71.9017 1.70169 72.0925 1.75684 72.23C2.07348 73.0283 2.66591 73.4983 3.46874 73.7055C4.66993 74.0134 5.87521 74.0298 7.05189 73.5886C7.88537 73.2766 8.30619 72.6589 8.29802 71.8524C8.29189 71.0316 7.81591 70.5329 7.10091 70.301C6.20206 70.0096 5.26849 69.8311 4.36555 69.554C3.56271 69.3078 2.74558 69.0677 1.99585 68.6962C0.954005 68.1811 0.514794 67.233 0.557694 66.0879C0.600594 64.9161 1.13582 64.007 2.22261 63.5432C4.08568 62.7449 5.99778 62.7613 7.87719 63.4673C8.87002 63.8408 9.38277 64.6904 9.69532 65.7903Z" fill="black"/>
<path d="M101.213 75.1072C100.728 75.1072 100.359 75.0846 99.993 75.1133C99.6253 75.1421 99.4394 74.9984 99.3147 74.6496C99.0083 73.7938 98.6508 72.9586 98.3424 72.1049C98.2198 71.7622 98.04 71.6288 97.6703 71.6329C96.2301 71.6513 94.7899 71.6554 93.3496 71.6329C92.9472 71.6267 92.7736 71.7806 92.6449 72.1439C92.3548 72.9606 91.9912 73.7507 91.7133 74.5716C91.5663 75.0046 91.3334 75.1544 90.9003 75.1154C90.5591 75.0846 90.2139 75.1092 89.7645 75.1092C89.8605 74.8301 89.9136 74.6413 89.9871 74.4608C91.4396 70.8859 92.9023 67.3131 94.3363 63.73C94.51 63.297 94.7143 63.1308 95.1841 63.139C96.4589 63.1636 96.4609 63.141 96.9287 64.3107C98.277 67.6845 99.6253 71.0562 100.971 74.43C101.045 74.6147 101.108 74.8055 101.217 75.1072H101.213ZM97.611 70.2436C96.894 68.372 96.2158 66.6051 95.5008 64.7417C94.7776 66.6358 94.0994 68.413 93.4007 70.2436H97.611Z" fill="black"/>
<path d="M25.3741 63.1964H27.0104C27.0104 63.5904 27.0084 63.9372 27.0104 64.2861C27.0309 66.6194 26.9921 68.9568 27.0962 71.2881C27.1637 72.8026 28.0707 73.6235 29.5701 73.8246C31.4598 74.079 32.9306 73.2561 33.3147 71.6924C33.427 71.2368 33.4638 70.7525 33.4658 70.2805C33.4822 68.1524 33.472 66.0243 33.474 63.8942C33.474 63.6725 33.474 63.4488 33.474 63.1882H35.1083C35.1205 63.418 35.141 63.6171 35.141 63.8162C35.141 66.0489 35.1491 68.2796 35.141 70.5124C35.1287 73.3156 33.5435 75.0292 30.7468 75.2467C29.1759 75.3699 27.7009 75.1092 26.5161 73.9539C25.8583 73.3115 25.4129 72.5009 25.3946 71.598C25.3394 68.8132 25.3741 66.0264 25.3741 63.1964Z" fill="black"/>
<path d="M45.4389 89.0804C45.9026 89.3205 46.3173 89.5339 46.7729 89.772C46.2193 90.995 45.3981 91.8836 44.2316 92.409C42.4421 93.2134 40.6239 93.1888 38.8487 92.3885C37.3615 91.7195 36.4954 90.4902 36.0929 88.9306C35.7089 87.4407 35.713 85.9406 36.1358 84.4609C36.8753 81.8773 39.1878 80.4613 42.2051 80.6973C44.0355 80.8409 45.5533 81.5058 46.4603 83.2153C46.5257 83.3405 46.5686 83.478 46.6605 83.7037C46.1396 83.8802 45.6453 84.0464 45.1162 84.225C44.2398 82.4355 42.7526 81.9347 40.9406 82.1543C39.2818 82.3534 38.2461 83.3364 37.813 84.9124C37.386 86.4659 37.3901 88.0276 38.1787 89.4888C39.5739 92.0745 43.1407 92.2941 44.8812 89.9156C45.063 89.6673 45.2224 89.4046 45.4389 89.0804Z" fill="black"/>
<path d="M75.6178 82.2836H71.5934V80.9045H81.2744V82.259H77.2725V83.0716C77.2725 86.0493 77.2725 89.027 77.2725 92.0047C77.2725 92.5342 77.0001 92.7989 76.4553 92.7989C76.1939 92.7989 75.9324 92.7989 75.6178 92.7989V82.2815V82.2836Z" fill="black"/>
<path d="M102.596 63.1964H104.248V73.6768H110.175V75.0661H102.596V63.1944V63.1964Z" fill="black"/>
<path d="M112.336 63.219C112.409 63.1944 112.467 63.1656 112.524 63.1595C113.487 63.0788 113.968 63.522 113.968 64.4893C113.968 67.7522 113.968 71.0131 113.968 74.2761C113.968 74.8288 113.685 75.1051 113.12 75.1051C112.877 75.1051 112.632 75.1051 112.334 75.1051V63.2169L112.336 63.219Z" fill="black"/>
</g>
<defs>
<clipPath id="clip0_1_60">
<rect width="140" height="93" fill="white"/>
</clipPath>
</defs>
</svg>
